/* XPM */
static char *sand_floor_tiles_ceramic_indoors_resized[] = {
/* columns rows colors chars-per-pixel */
"100 100 60 1 ",
"  c #847B5F",
". c #968E71",
"X c #968F7B",
"o c #9B9272",
"O c #9B957A",
"+ c #A49C7D",
"@ c #A99E7C",
"# c #A49C82",
"$ c #A7A083",
"% c #ADA484",
"& c #A6A088",
"* c #ADA68B",
"= c #AFA88A",
"- c #B0A585",
"; c #B1A886",
": c #B4AB8C",
"> c #B9AF8F",
", c #B9B08F",
"< c #AEA791",
"1 c #B5AD92",
"2 c #B8AF91",
"3 c #B4AE99",
"4 c #B7B093",
"5 c #BBB395",
"6 c #BEB897",
"7 c #B7B29C",
"8 c #BDB69A",
"9 c #BFB89C",
"0 c #BCB6A1",
"q c #BFB9A2",
"w c #C0B596",
"e c #C0B79A",
"r c #C1BA9D",
"t c #C4BDA3",
"y c #C8BFA5",
"u c #C4BFA9",
"i c #C7C0A6",
"p c #C8C1A6",
"a c #C7C1A9",
"s c #CBC5AC",
"d c #CEC8AF",
"f c #D0C9AF",
"g c #CDC7B0",
"h c #CFC9B2",
"j c #D1CBB5",
"k c #D4CEB9",
"l c #D6D1BD",
"z c #D8D3BF",
"x c #D7D2C0",
"c c #DAD5C2",
"v c #DDD8C6",
"b c #DED7C9",
"n c #DED9C9",
"m c #E1DCCC",
"M c #E4DFD1",
"N c #E5E1D4",
"B c #E7E4D9",
"V c #EBEADF",
"C c #F0EEE6",
"Z c #F4F4EE",
/* pixels */
"jlxaghgghqdlxhhhkxjdhhlaaaj0sikxvvNBxhcaadkxk0tjxlakvkllclahkkklcncNxmkiahah1adiiir26et8:pttstyspttt",
"khlkhhhhag9dkagkkkjklkhkxda3td0dxxBNkjkhjjkmkkhklsdjjzcjccdllllxkxlvxvahhhgd9ai6i9ueeagt4t6rytstjjsh",
"chdckkkhgirttgghdkkkkhsahaudaiadxlhhhlkkhdhlla0hddxxlkssjhjgxuqcxllhkckkllga9ad94rprptttyrp56pttssps",
"lcxlcchaggaikhlxxjslkk7qcxjkhahvsxxhhhsjssdrqataahxljl07ksuhjgkkxxcxgxcaghdiip944slssst6ssstpythytsg",
"lcvlkxkknhghaa7daqajjkljlkshjkauhjkkduajklar+==9qasdkdisjj66ahhdsj&7hdtsdhlksj=6tgtjjjjgkjkpthhstptt",
"alkaxxgkkdqi9gasdtiajlkjhdjjhssuhhhhdauaiajs94qqia0dhjlgjluakqakskugagiaikadps71htshkjgpshkgjlssspyg",
"kkxchkhkdhshglcl=tqqjjkxhxhhkhulxjhkhsqa6qs6sd6isqsdhlhtuaudaddkaukkhgaasatg9ihljhkhjcsyhgstspatfygj",
"kkkkllsshlhgggi9s1uhjskkkjhhgghahdhdddkdss1trqah76ihjjjsrukdtqaahihdht9shgti*sllkcxkkkjckhhhhgatgggj",
"xlkllgahhaladi9adssklllkgghhhpduahhkhhditisidsssdqujjhkhkvlxljhsksassdskttssdskcxjklkkhhkjkiggssggus",
"kjglkhhgghsdg8ssihiislksglkjdii47kdxhitiddhia6shsudjhllklkhllshjhiskkphhjjjtpkjjhllksjkpssdttyitpyfp",
"vnckhhkkhsi8lhkdssaajjjllkzjhitdhjsukisiquaiijd46tgkdhxjhhhkjkkkspktgkkljgjskkkjljjsgjjsat6tkyg8gypt",
"kccllkclhdsdsasdaddhhjkkllkgsdaisddxvhhjhidsqddihhddjjjdhdjxhkhdsklksklhgjkmlzpjhghjkkjkk66pgstspr5e",
"luunccxkllnhttisdsiddkxxlhlkkhgskhshjhjkxadxct6aadskkjss4ihhljlkkggsttktkcccllzfaxkhhkjsi9sstrwetttt",
"klzzhkccxklkxkghhajjjxllxlkkhldhhskhddlhdddjcadkqskdssdddi&ijljqtst8sqkklllkjkzfkkhhaptaskitsyt2wwtp",
"lvccccvxlklkkhllaakhddkhgxgshhhgxxxaujlkiisidstihjdajjkddiuhadk=+psst7skklllkjkjclliisttt1ttpt56w;6e",
"cvvckxxgakhhdkakkkkkdklhgcjkhhhkklstali6hxlsdsqtds6ksdldssdditstpdihksgkjkkhkjjjgggsaprai=tpw5ewe16w",
"czllcclxkllgkgtasksshshxgpdkzllhkhsidddaihhidssaaqtskdhpsskipiai8tathksalklczljjssrsjgjsrstwet2-tttf",
"ncxlxkkkvhssakksdgtihagllhhlhhllsiidajdis9iidhd5sttrdkhdi9issdit66rqplhahvclkjsjspjjjpgs2tptwr-5ywrt",
"ccllhklhstpsthsghptrgkkhiscvldsdartsksakai6istd%:dtr9iiddddhkhadriikkklllcktrpjsszjtsypsyyr5et22:wet",
"slxklxgggkjtpssittishiskksghlhanhakdlkhlsjddkldsatt669dllghaspiridphlklcllgtrjjw6jgppj25ptt5512-5yrp",
"cjczhkhsartt6e6rtslhahlkli6listclhksgddddkkhllgdt6tr6itdikkksiissjhkhkkkujjtpjsssyddpkwyjsfsst1rrptp",
"zgshkship4rtettssshhtgkclhickkhkclldlhlidjhlzkhsi6ttrtpjssphdssiikklklkljpsgjsspdrdr8y:wiire5e5e5rrt",
"jkjlh6sarptirrpsiakghxvkkkkghlcvblkkvdasszclzhssjs69d66sjpiiisdskskjhsjkxgskppp4yjryrtppts66t6w5rw5p",
"lzzka=idhptt5pkptdahktqkvlhhgvbBvzlhhpizkzkzxlghdi9id6@tisiiss9lkhshksjjkhkxspdtssrpjsypyst6t6tttr6p",
"zjjlkhhdsppsti6rpskshaqjjuxxlcnbcnlxciikvhhxlxlhsttsjprkt6sssstfjjzlkkjkkkkjyslkytdkhstpptytr2sptyps",
"cjhsdhhdt6rtspssjkklc0#gxuxkhbchllhvvkhrxhvkllhsstyspssjatpyrpggfssjskzsfjpdzjkscczhdjppttjr266spsjk",
"zsahgsdssdppdsjsahhczullxclgsjhcxzhcbckklkxczsassr6epttprirtrygyrfkfsfsyrtdjspjklvllkjskfjutty9hgjhs",
"lljjhdssdsdsppkpatskxhcnlhggjjccdhhzckvcxkxclddhspspptspi66w>tppirssddtysdskssjkpsllckkstydsgpptsglg",
"jljjhakld9hddiddkklhxvlkkhshhcchdlhlbdlckhkxcllmaspdttsdftw2>5wrywprrfiyskjspspklhhhhhjd22pjsgjpjkks",
"zjsljighhdtsdarjshkhzxkidhhhhkjsdlzhhsd7jvskkkllkksptyresro5rr2;wyipsssirsjrrjtskkhhclapryttjgjjgkck",
"czjjjlsghhkripisgskhlxldhdgxhihpdpjr1iaklgiskzkccftygrp:ry:;r22esfrsppiryysspstshjsgkls1Ojysjsjcchkx",
"hsjlhslsddpis99kghhkhdkkdahaidhjtseiirtrptkzkkcmcprstyye6yy552;tpspsiriispsjsppjkkkhikha7pgttgjkkcgj",
"ksklljjlkjsppytjttslldssisjsjgljw66spuksgglklkcczhsgpddp66tr5:wrpddpsspjjkkcfppdkkksuspkpskjhgpghjkk",
"kkcclks*tpdtfsdpgdhzlzseptisspkp6rt9ptkcgssdcclzkhh8pr,+&syrryw5pjdssjfjphspisssgjjspgpstttpptsjjjxh",
"cklvlzkt#1kjgskjklhlkkjee4sfkjhspptwshgghgddkgkckdtipretsfr65yt*esjs64jjsjtrr6iydjjghgkttaspsskkkkll",
"ccljkkjkgfkkpgjkkhzkl9srthrtpsllt6spdssjhs9*isjjjstrrdtt%5setptsyttsd6szlfsspierewsftpjhspcljjssddjd",
"lllkkxjhkljykcklllggkjksp6>trpjssshdkptpdrishgglksdi5tp956pjyst6psr>esklgtjgppew:psyjsjihsakssdshhlj",
"khklkxcccjjkksjcsqhxjjlssktkhkksllkkcjjaptphllklvhsi=iiispyssyyr46i64slluulxspyt54spssppsaihhgpkjjjj",
"lllcxcxjpkjjs6pcgzkkkjkkjusghkcgla8gkxsgasahkkxlkkjdphdspptptrr56rrtddjkgkkjjkss62tsksspiahsssakdhak",
"llcckljuppjsfssshkllkkjkjtrpkbckgccMnkjgjhshckklkhkdshpdsjjpttssfjissdskkgxxjkks55tpkghpssssskhkkaud",
"llkkzjihlshjsp3#hllklhkljspsclklzhkxvckhklxvncvMcddjkfjskljpgfsspstpsskkklvvspjserwtiijpdiadsshhdhss",
"khlkkzzjklkshpphhzhdhzczjjsjjlccvhxllllvahvbnnnlzvlkzzjjjksgtggse:,eslklkklhvksjjst6riskdhhssagkhaha",
"hlkkhahzlsjrsjrtadhklzllyutjklcvvxlkcdzxlkgxvxcglzljjkllkjksspspptrrpsssklkhjrillsp8ipdhdsidpsssdjhd",
"jllkzzdlkhpdjtp8iskkkzzzlutgdlccxllllnnczlkzllnMlajdkdzctpjjttsgjls6sysdlklzsdjllditsds986pjhssddjat",
"kczhzllklsss86tiasllgcxlcssjckckhlxxlnzccNclcclzclklclljgslkatdhzchtfssjjsshksdphjidkjsdigcttjsdsha9",
"hhhlllzkkk4-9pihpshlklcxukjkjpkllhlxkzxnMnxknnvvchhllvkdkhlkh9ssdczlpkkdaj47dpiratptdjhdr8sagshsshdl",
"ldkklzvchljystirp4ihghchsg8fgtslhhxllbBNlxckxvxccsskklklzhkdidsaihllskjssklhdperssjirdlkhkppkkclhkjk",
"paklzzjkslkgupp6rr66igklgksskkkkxzklxmnbxvvhcxzvlkpglktpjkskddklgkkskklljskljsr6sptjsdtsgkbljlkgahat",
"xzhlclhujji6r9sprwetssflljpsskspcllmNvcmnvvllnclkdihchkhhkhkpskksahw6zxzzldlzprwrspklkssjkkfjjjddt6a",
"glugcklaaa959:rt2wrydjjkc6%ysjflvccmlkcNnnNncclhszslkzjllhlghckhkhlspclzlgskliprtpshjssspygjjrtptsit",
"kkhljjjjss,,;@5rtrtyykdt5erwtrpccnvczlbbnnnclxlklnhijkillhlkshzlhdlzccklklklzsrsjkhhpsstpptsww4p0i67",
"hkkllljjhaa6ri655ttysyystttpsjkklbzclllvnccchkcxhdsdlzhkhkkhhtilldkzzhlltsdlljpjzsiiisjt5ww25w2r6r6s",
"gklcklkspst2665retrdssstptrskcjszlhnxlkxznvnnxkckksjlzvlkzllxlkklzxlzhhlhdshzlhskrrlgsuyeetwrttrr69s",
"hlxcjkktty12%rr,2tgsgg8tspjtskklcxkbxhhlcbmnvMckkhkhijznvclzkxcllxczlhjklhhkkkddskfjstspsttppdt49st6",
"kkjgkkhh6uw6>wwwwwtysh6skkcksgglkhxvllcvcvnmnccclllldkzcmvzcbvvbcvzklkspckklhhhsdkddgssjpt6ttgs4jhtt",
"lkhjkkjkyt1w55>,:;tpstpythlhpkjpakxblknmbmmvclhlhkhjzjvnmnvnmblzlzxlddspsshdsjkkjdyssjt6yptt9tsklpth",
"lkkkslkssy2>e>%;@>ysyppsspklsjkr9dzkkznbMchclvMcghhkllklvmlcvzlzsjjkktdpspsdddkfsspyjstrd6tp8ajsahhj",
"xckplkttspy552e5,w,wrstpgpshss6r8ilhddzcckhaaknvccxhhvhklvklvlxkfjjptpdjkftpsdpppsdjspfjapphhkpsslkh",
"glkklkadt1tswrw,@#wrVmssppjhkhrehrrhaslcjackkzllcvlzkghlclcjvvllkjstptsrsp6jssrirsssjstiadhvhtjkhhkk",
"jkkkjjsssslsep5: +wsmvskpitehsslh9idpddjzzksaakklhkccxkzklzllkaldipfpssyss4wppwisryprjjjdhidhsglhszz",
"cchajsssskjs65e:essssjjkjtrpdkhhh9idspsjllklzlllzhlcnNlslkkzhshhlsferypr6rt4ipepsipsp7jgpdishdppdkjc",
"xggpjtrpgtpjspy5rkjjjsfkkstsdkp4s9s9sjjjlcvnlmlxlklcvbvlhjkjsithdpdkpprdprppwpyretfkj7sssdid7t9isskh",
"hhsssgppjpryttsrspjjjsjfhj2>e94#pdgisgzzclklclcvlhhlkkzzljsssdlkspfsfspier:ewrrreiptsdsphhddaadlkgjh",
"cspkskkpttr55espr5tsspjjgk1:4@t65i99phzvcklzzgklvkllklcllssiisdpstpsssdrwsydiwrrrpipdhiritt66ijhhckl",
"lllkjsdspeyyr5pssysksskkjgsprrsyrzsttpjjccclkklccllhxnxvzzkiriii5rtjssps4rytrr6wpprtprsdyrtt4tgghaq9",
"cclsjddjptrsieytttsdghcjkkspttttsjjkjjhkklklcclcllzghxhkzksjpewir,wypwrspftpie;;wyrsssyjfpyypjjjkhkj",
"lhhhdzksss;tpgsttyfjjhjgjgjjsspuppjkjkhlllkkklzzlhkxjskjjsr:5iifdpsree6prssirrip>:idryrypssyjkjejlkk",
"jpsdkidsjjjpgfs@5srsjjjxljtggsyt2gkxlkgkccbhskllhklkdkakzdp5rfdisfifjgskyszpfsrirw>rprprp:qspkjshhjj",
"psjkshhlkjstypprdjtpjjkkjs3ljss65jsxvvxkllhlgkklklllljphstscptsgtrsipsatfisfpwwsrw>,djpyssjsgg5thdid",
"dspkdshjktjkppjkjkjyskjkjjjjjtttt9hklcxhkhkjaddkjhhlkgpr7pjlpyssp6iit6shsfffipsr5;rresppkdhtyggtidad",
"cl3skkjtjkkcjhsutkjjkjjckkkjjp68ttiskhklllkkakssjpdkzhsssppgaa46hsissihgfsssszksipwrrssrsdjtughgajat",
"clcllkhkkhspjphsyljjxkkgjkjptjptpt6sgkhkhahhqallgpsshdsssjjkitsdsissdsskkfrfsrryrprrsjprskkuispsjkdj",
"cclllzahldap6ihlhksglxk.tjgjsjjttssrdkjdhhdl71dlkuiiptssshhkhhadksskhkkhkjjkppwpsp6rsfspfpwujksj0qkk",
"lllklld9izhiipjkgsikhlktjkgjtsytrdhjisdskdthhzhlblhspjsjhshjhaskshssthkskkssssffgttpjpjftffkk<dshdhl",
"xlklcllahhhhddslqdkkhklkjjytfjyujhskdidklxhiizclhstipspdtkshkhhhkkshhdlxkkhhkssstpyy6skkjkjgkjjulkll",
"lkkkhklghaddikzhshkxckjhfjyekgftppdsdipklxlhklzcljjsttkkstrhkgklkljkkhhkspitpjprt5tssjskjkfpklkjdjjj",
"lhzzhllldkkkshkhhlksslkskrepgjswtisjhksdkhkczclkllklkdggkgsgkkxhkkxlxlkispsppptyr5tsfjjjjjstsjsjkkdk",
"llxnllllclhlkkdaalhdgkkksiisfgptrshsrsjssslhdjshkkkclssspkhkhxxssjghllhkkjpsdrrsw;sfkssjhhksts7sdhss",
"klghhhhlclahdhspsdxvlgsjkssdjsittrppiskpskkhshddshsteskjjkkklklhsdhcvklkhthhkseppyysgkkkhjhtgy5>sldk",
"lkkkzllxlldpdjirhghkkkhkatshhkkpptripjhpkjkksdithirrp6rknhskxlllkllhxkkkhkkkk:1sjsejfkjjjstgtt6;adjc",
"zklzkkkklcgljhssghp9jhhj8jgshhxlsp5rppasjksjpiritp6tt;64hnhz9dhgjlllkhcklldlkdlsdytkkggggsgjst5plljx",
"zlkkllkllkhhssssgsaajsghtslhhkjkyttttpupptppit:rytt6teysiszhpalljlkjxkckhkkkclkhsdpyssspggtpptgkxkhj",
"lclvlklshsssthhkkt6gsssssshtsshhpsrssr55sjkkljeps8tretpsa59dddxldddkaakxjllnclxjjsgsysssgppkskjhjajj",
"czkkjsjphhhhphsssiir4hapagsspsjhdjspt5t446sisprptttp2%6rsi8iaizxkajljujkjkzlllasjggjjssjgjjhgcxlcxxj",
"mvddkkfjkph:8hpi>5jsshskksssjaishkhstt66ppisdpsrstyppppr6i9tpiahnjadadjkcllxxhklgpgks+sytssskclkllkh",
"ZCdsfkdjpstskhkg9ipdjkksshtrpidhkkksti8sshhs5rjjjssr6spt8a99siiisasdaakjkcxckkllcjhjj5tpaskhklklkkll",
"Bcssprfkistjpit9iitssspipshrhhhskblsp9ikksskssjjjseptpps464rt>9hsqdkjjldhlxxkllkclkggjggkadkhklkhhjl",
"jtsssjkssrtttt69sidkdjkjtgklshi%6gprsghhhkjtsdsdssppsgp8psiti>taajjklkjjhjllxxxlhcjskjjghhlvchskhudl",
"hakjajpsiiii65i5issdhkhggkhchhao$hi>tdshkjktspshttsjkkttsdt8githhkjjkkdhjjclkkklhhjzlgiijhkkkxxluqxx",
"psgtsjsassshsr98tssdhkkklhlkdddldhi6iaklkjglxhhsptpyjpyr6668ia6tdjhkkkjkllkjkkkaiszaajksclgklhxlusll",
"hdppssjsi9ashshsadshldjjhkghllshhhhkhhhksjljgkkgsstjttttsut8956psjjhsjlaaxxllkhklkhkjhgslnsszcxhkxkk",
"skssijhsiddhhkkhkkldhjaksalllxlxhgddzlkkkkjajcjjjpyt2egkjhas9iizdhxhsauaklxvxkkljkhkchdcsakhhkllxNxk",
"skskjdssgddgzllkkhshlkhhhhxxllkhlkllcsskkkgghjsjs52wetxxkjsghhhxktisdakjxxlxxxxgsklkauazhshgsahglgdx",
"clhsdjsdchhlllzzklxxjkkglkkxllkchklkkjjjjgkkjujjfstte6tkcjsskkxjkhslxkxhkxlxlkjkjjgsgxhuuglllkdhhxkk",
"klljjjgtdihhkxq4xllxxlhhkllxkklxklllkgjjjjkkcyhjkkprryjkklshkxcxhlxxkkxllvcgcljhhlghlkhhkhhkghllxkxd",
"kcxklxkclaglczdgvhllhllxkxlkhhxgkxcllsjzkkkskcckkjskgsjjlckxcccclkkhxxlljjcajjhslkhsskkigh0skhllkhjj",
"cldkzzzkspsfdilclcttcvxghllhqlxkhzlhxkkklhdhhhlzkgkhdlgikjlclkllcxlcllvcxcxcndahjjkdhjtdkahduasjkkhk",
"llskkkksstjkyjskkhlgljhkhhhhgldhhlkkklhkchhlhglhhssait7kkkjzklgklllllldlcxvxvjkkkkqtdiddakklssdhkkkh",
"kpjX7ktjsjsjssfjkjjklkxkhkkhlhihhsdhdhklggzzllhksjagsg7hlkhhvjhskchdkjjjdxljxxasklhjia703shlkhdusjlk",
"9tseejji6sjptyjgllgkkksallhgiihghhkkskkhhdkhkgihauldi9rjddktcvathhkkjljjhjdhhjdjkkxxkjhjhulhuldhhhjc"
};
